<svg id="svg" version="1.1" xmlns="http://www.w3.org/2000/svg" xmlns:xlink="http://www.w3.org/1999/xlink" width="100%" height="100%" viewBox="0, 0, 400,178.9156626506024"><g id="svgg"><path id="path0" d="M41.342 62.890 L 41.342 68.725 41.933 68.725 C 42.258 68.725,42.600 68.791,42.694 68.871 C 42.787 68.952,43.305 69.125,43.844 69.256 C 46.867 69.992,49.647 72.662,50.650 75.794 C 50.776 76.188,50.935 76.550,51.003 76.600 C 51.227 76.762,51.544 78.787,51.547 80.075 C 51.553 82.502,52.239 87.281,52.615 87.516 C 52.695 87.566,52.846 87.928,52.952 88.322 C 53.219 89.312,54.019 91.322,54.194 91.444 C 54.274 91.499,54.649 92.107,55.029 92.796 C 55.408 93.485,55.947 94.286,56.226 94.575 C 56.505 94.865,56.734 95.186,56.734 95.290 C 56.734 95.580,60.509 99.134,61.139 99.437 C 61.446 99.584,61.853 99.850,62.043 100.028 C 62.369 100.331,63.376 100.844,65.682 101.881 C 69.651 103.666,77.099 103.543,81.249 101.624 C 82.708 100.950,83.821 100.373,83.937 100.231 C 83.987 100.171,84.470 99.847,85.011 99.511 C 86.468 98.605,88.937 96.264,89.751 95.017 C 89.981 94.664,90.280 94.261,90.416 94.123 C 90.763 93.766,91.742 92.137,91.890 91.668 C 91.959 91.452,92.083 91.275,92.166 91.275 C 92.313 91.275,92.985 89.610,93.431 88.143 C 93.551 87.749,93.711 87.347,93.788 87.248 C 94.105 86.843,94.529 84.027,94.679 81.342 C 94.853 78.218,95.044 76.949,95.463 76.141 C 95.613 75.852,95.972 75.088,96.262 74.444 C 96.756 73.345,97.809 72.090,99.435 70.665 C 100.082 70.098,101.868 69.318,102.895 69.154 C 103.301 69.089,103.675 68.966,103.728 68.880 C 103.862 68.664,105.726 68.685,105.861 68.904 C 105.922 69.002,106.128 69.083,106.319 69.083 C 107.165 69.083,109.353 70.019,110.083 70.694 C 110.243 70.841,110.745 71.244,111.198 71.588 C 111.651 71.933,112.025 72.306,112.029 72.417 C 112.033 72.528,112.149 72.712,112.287 72.827 C 112.425 72.941,112.751 73.455,113.012 73.967 C 113.273 74.480,113.600 75.105,113.739 75.357 C 114.258 76.299,114.568 78.027,114.718 80.823 C 114.874 83.714,115.031 85.023,115.244 85.190 C 115.307 85.239,115.461 85.787,115.585 86.407 C 115.853 87.737,116.608 90.036,116.827 90.186 C 116.911 90.244,117.216 90.843,117.506 91.517 C 117.795 92.191,118.194 92.916,118.393 93.128 C 118.592 93.339,118.863 93.726,118.995 93.987 C 119.644 95.266,123.163 98.735,124.743 99.653 C 125.186 99.910,125.577 100.190,125.612 100.275 C 125.681 100.441,128.254 101.655,128.536 101.655 C 128.629 101.655,128.819 101.769,128.959 101.908 C 129.535 102.485,136.180 103.534,136.599 103.114 C 136.676 103.038,136.718 100.445,136.692 97.354 L 136.644 91.733 135.332 91.514 C 131.472 90.868,128.391 88.244,127.239 84.623 C 127.009 83.901,126.750 83.215,126.664 83.098 C 126.577 82.981,126.432 81.571,126.341 79.966 C 126.135 76.310,125.566 72.841,125.115 72.483 C 125.053 72.434,124.814 71.810,124.584 71.096 C 124.354 70.383,123.853 69.280,123.470 68.645 C 123.087 68.011,122.774 67.415,122.774 67.322 C 122.774 67.228,122.536 66.897,122.246 66.586 C 121.955 66.275,121.552 65.753,121.349 65.425 C 120.891 64.683,117.302 61.208,116.995 61.208 C 116.871 61.208,116.525 60.987,116.226 60.716 C 115.928 60.445,115.165 59.982,114.531 59.687 C 113.897 59.391,113.334 59.091,113.280 59.018 C 113.035 58.692,109.281 57.629,108.371 57.629 C 108.139 57.629,107.917 57.532,107.878 57.413 C 107.782 57.126,101.691 57.105,101.509 57.391 C 101.442 57.498,101.025 57.643,100.582 57.715 C 99.141 57.948,96.320 58.788,96.107 59.048 C 96.058 59.108,95.454 59.435,94.765 59.774 C 94.076 60.113,93.276 60.615,92.986 60.889 C 92.697 61.163,92.364 61.387,92.247 61.387 C 91.887 61.387,88.476 64.856,87.874 65.834 C 87.562 66.341,87.240 66.756,87.159 66.756 C 87.078 66.756,86.704 67.380,86.330 68.143 C 85.955 68.906,85.553 69.629,85.436 69.751 C 85.196 69.999,84.115 73.297,84.116 73.781 C 84.116 73.953,84.044 74.094,83.956 74.094 C 83.691 74.094,83.393 76.166,83.218 79.235 C 83.064 81.934,82.670 84.421,82.361 84.647 C 82.289 84.699,81.979 85.290,81.673 85.958 C 79.894 89.841,75.409 92.253,71.533 91.412 C 69.528 90.977,66.841 89.440,66.318 88.429 C 66.173 88.148,65.940 87.874,65.801 87.821 C 64.673 87.388,63.370 83.323,63.170 79.612 C 63.015 76.729,62.873 75.570,62.637 75.257 C 62.562 75.159,62.441 74.716,62.368 74.273 C 62.196 73.228,61.094 69.949,60.868 69.810 C 60.772 69.750,60.539 69.341,60.350 68.899 C 59.876 67.794,58.061 65.145,57.431 64.640 C 57.146 64.412,56.913 64.116,56.913 63.983 C 56.913 63.850,56.664 63.554,56.360 63.325 C 56.055 63.096,55.519 62.606,55.167 62.237 C 54.815 61.868,54.460 61.566,54.378 61.566 C 54.296 61.566,53.754 61.216,53.174 60.789 C 52.594 60.362,51.667 59.829,51.115 59.605 C 50.563 59.381,50.112 59.130,50.112 59.047 C 50.112 58.851,47.658 58.080,46.174 57.810 C 45.535 57.694,44.850 57.529,44.653 57.445 C 44.456 57.360,43.631 57.237,42.819 57.172 L 41.342 57.054 41.342 62.890 " stroke="none" fill="#04ecfc" fill-rule="evenodd"></path><path id="path1" d="M41.342 115.705 L 41.342 121.880 88.993 121.835 L 136.644 121.790 136.691 115.660 L 136.738 109.530 89.040 109.530 L 41.342 109.530 41.342 115.705 " stroke="none" fill="#f4941c" fill-rule="evenodd"></path><path id="path2" d="M182.058 75.480 C 183.313 75.511,185.367 75.511,186.622 75.480 C 187.877 75.450,186.850 75.425,184.340 75.425 C 181.830 75.425,180.803 75.450,182.058 75.480 M276.555 84.245 C 276.826 84.286,277.268 84.286,277.539 84.245 C 277.810 84.204,277.588 84.170,277.047 84.170 C 276.506 84.170,276.284 84.204,276.555 84.245 M189.257 108.725 C 189.257 115.025,189.279 117.576,189.306 114.394 C 189.334 111.213,189.334 106.058,189.306 102.940 C 189.279 99.822,189.257 102.425,189.257 108.725 M206.757 97.987 C 206.759 98.380,206.795 98.520,206.838 98.298 C 206.881 98.075,206.879 97.753,206.834 97.582 C 206.790 97.411,206.755 97.593,206.757 97.987 " stroke="none" fill="#042444" fill-rule="evenodd"></path><path id="path3" d="M150.157 66.935 L 150.157 75.884 146.935 75.884 L 143.714 75.884 143.714 80.179 L 143.714 84.474 146.924 84.474 L 150.135 84.474 150.209 96.957 C 150.281 108.818,150.349 110.496,150.814 111.678 C 150.872 111.826,150.943 112.115,150.970 112.321 C 151.043 112.861,152.433 115.702,152.896 116.257 C 154.053 117.644,154.514 118.121,154.698 118.121 C 154.811 118.121,154.998 118.274,155.115 118.461 C 155.232 118.649,155.795 119.022,156.366 119.291 C 156.938 119.560,157.445 119.834,157.494 119.901 C 158.091 120.710,164.463 121.240,167.338 120.721 C 168.284 120.550,169.921 120.070,170.022 119.933 C 170.201 119.693,171.090 119.195,171.339 119.195 C 171.480 119.195,171.854 118.953,172.170 118.658 C 172.486 118.362,172.817 118.121,172.905 118.121 C 172.993 118.121,173.065 117.960,173.065 117.763 C 173.065 117.566,172.993 117.405,172.905 117.405 C 172.818 117.405,172.693 117.183,172.629 116.913 C 172.382 115.877,171.386 112.837,171.265 112.752 C 171.195 112.702,170.996 112.157,170.824 111.539 C 170.446 110.190,170.391 110.146,169.621 110.578 C 168.275 111.334,167.777 111.570,167.623 111.526 C 167.533 111.501,167.398 111.580,167.323 111.702 C 167.122 112.027,164.174 112.132,163.490 111.839 C 163.195 111.712,162.872 111.604,162.774 111.599 C 162.676 111.593,162.451 111.444,162.275 111.269 C 162.100 111.093,161.866 111.005,161.756 111.073 C 161.636 111.146,161.605 111.115,161.680 110.995 C 161.748 110.885,161.634 110.692,161.426 110.565 C 160.933 110.265,160.210 108.733,160.066 107.684 C 160.004 107.227,159.903 106.885,159.842 106.922 C 159.781 106.960,159.753 101.924,159.779 95.732 L 159.826 84.474 165.103 84.474 L 170.380 84.474 170.380 80.179 L 170.380 75.884 165.101 75.884 L 159.821 75.884 159.821 66.935 L 159.821 57.987 154.989 57.987 L 150.157 57.987 150.157 66.935 M255.928 89.306 L 255.928 120.447 260.582 120.447 L 265.235 120.447 265.235 117.897 L 265.235 115.347 266.122 116.271 C 266.610 116.780,267.315 117.424,267.688 117.703 C 268.061 117.982,268.474 118.312,268.606 118.436 C 268.907 118.722,272.040 120.221,272.601 120.349 C 277.171 121.386,282.836 121.083,285.503 119.659 C 285.971 119.409,286.353 119.244,286.353 119.293 C 286.353 119.445,287.822 118.649,289.128 117.790 C 290.302 117.017,292.680 114.899,292.373 114.899 C 292.297 114.899,292.355 114.779,292.502 114.631 C 292.650 114.483,292.842 114.362,292.929 114.362 C 293.103 114.362,293.869 113.387,293.872 113.162 C 293.873 113.084,294.142 112.683,294.469 112.271 C 294.796 111.860,295.336 110.893,295.668 110.124 C 296.000 109.354,296.330 108.683,296.402 108.632 C 296.612 108.482,297.391 105.627,297.646 104.072 C 297.776 103.284,297.965 102.582,298.068 102.512 C 298.338 102.328,298.320 94.151,298.049 93.584 C 297.935 93.348,297.710 92.430,297.547 91.544 C 297.180 89.548,296.550 87.338,296.348 87.338 C 296.265 87.338,296.197 87.249,296.197 87.140 C 296.197 86.762,294.787 83.937,294.598 83.937 C 294.493 83.937,294.407 83.851,294.407 83.746 C 294.407 83.512,293.377 81.956,293.041 81.681 C 292.907 81.572,292.569 81.195,292.289 80.842 C 292.009 80.490,291.389 79.903,290.911 79.539 C 290.434 79.174,289.882 78.726,289.685 78.542 C 289.488 78.359,288.989 78.045,288.576 77.845 C 288.164 77.646,287.643 77.324,287.420 77.130 C 287.000 76.766,283.939 75.705,283.309 75.705 C 283.113 75.705,282.953 75.638,282.953 75.556 C 282.953 75.474,282.852 75.394,282.729 75.379 C 282.606 75.363,282.063 75.275,281.521 75.183 C 280.232 74.963,275.950 74.963,274.810 75.183 C 274.318 75.278,273.814 75.367,273.691 75.381 C 273.568 75.395,273.468 75.474,273.468 75.556 C 273.468 75.638,273.280 75.705,273.050 75.705 C 272.820 75.705,272.577 75.760,272.508 75.829 C 272.440 75.897,272.208 75.980,271.992 76.012 C 271.508 76.086,269.666 76.918,269.536 77.122 C 269.484 77.204,269.138 77.432,268.767 77.630 C 267.910 78.087,265.963 79.798,265.766 80.268 C 265.682 80.467,265.610 75.632,265.604 69.396 L 265.593 58.166 260.761 58.166 L 255.928 58.166 255.928 89.306 M198.958 75.157 C 198.484 75.223,198.031 75.382,197.951 75.511 C 197.846 75.680,197.787 75.687,197.736 75.535 C 197.686 75.383,197.519 75.402,197.133 75.603 C 196.840 75.756,196.496 75.882,196.370 75.883 C 195.983 75.884,193.289 76.974,193.289 77.129 C 193.289 77.209,193.000 77.412,192.646 77.579 C 191.760 78.000,189.064 80.753,189.247 81.051 C 189.296 81.129,189.218 81.193,189.075 81.193 C 188.858 81.193,188.814 80.721,188.814 78.359 L 188.814 75.526 184.340 75.526 L 179.866 75.526 179.866 97.987 L 179.866 120.447 184.698 120.447 L 189.530 120.447 189.530 108.356 C 189.530 93.868,189.603 93.143,191.350 90.149 C 192.055 88.940,193.995 86.801,194.386 86.801 C 194.483 86.801,194.505 86.700,194.434 86.577 C 194.363 86.454,194.368 86.410,194.445 86.480 C 194.523 86.550,194.878 86.462,195.235 86.284 C 195.592 86.107,196.286 85.857,196.779 85.727 C 197.271 85.598,197.787 85.404,197.925 85.297 C 198.079 85.177,199.105 85.101,200.565 85.102 L 202.953 85.104 202.953 80.046 L 202.953 74.989 201.387 75.013 C 200.526 75.026,199.433 75.091,198.958 75.157 M223.984 75.111 C 223.592 75.157,223.173 75.276,223.053 75.375 C 222.933 75.475,222.750 75.505,222.648 75.441 C 222.545 75.378,222.461 75.411,222.461 75.515 C 222.461 75.619,222.301 75.705,222.105 75.705 C 221.446 75.705,218.242 76.893,217.752 77.320 C 217.484 77.552,217.149 77.760,217.006 77.781 C 215.981 77.931,211.794 81.866,211.098 83.333 C 210.940 83.665,210.743 83.937,210.661 83.937 C 210.341 83.937,208.520 87.885,208.054 89.589 C 207.786 90.566,207.490 91.514,207.395 91.697 C 207.261 91.954,207.275 91.996,207.459 91.882 C 207.615 91.786,207.596 91.890,207.402 92.185 C 206.701 93.258,206.589 102.561,207.267 103.379 C 207.372 103.504,207.405 103.772,207.341 103.974 C 207.277 104.175,207.300 104.340,207.392 104.340 C 207.485 104.340,207.611 104.656,207.673 105.041 C 207.848 106.140,208.829 108.883,209.124 109.100 C 209.271 109.209,209.356 109.331,209.315 109.373 C 209.273 109.415,209.477 109.890,209.769 110.429 C 210.060 110.968,210.347 111.550,210.405 111.723 C 210.464 111.895,210.579 112.036,210.662 112.036 C 210.745 112.036,211.026 112.400,211.286 112.844 C 211.547 113.289,211.893 113.752,212.055 113.873 C 212.216 113.995,212.656 114.477,213.032 114.944 C 213.408 115.412,213.811 115.794,213.927 115.794 C 214.043 115.795,214.424 116.097,214.772 116.466 C 215.121 116.835,215.866 117.368,216.428 117.650 C 216.990 117.932,217.450 118.224,217.450 118.299 C 217.450 118.461,218.766 119.039,220.134 119.478 C 220.676 119.651,221.163 119.859,221.218 119.940 C 221.688 120.635,229.117 121.229,232.215 120.819 C 234.341 120.538,236.267 120.096,236.155 119.915 C 236.106 119.836,236.342 119.719,236.679 119.656 C 237.303 119.539,239.511 118.597,239.884 118.289 C 239.997 118.196,240.532 117.827,241.074 117.470 C 242.270 116.681,244.618 114.296,244.762 113.724 C 244.864 113.318,243.915 111.857,243.549 111.857 C 243.468 111.857,243.400 111.770,243.400 111.663 C 243.400 111.491,241.404 108.815,240.317 107.528 C 239.822 106.944,239.709 106.928,239.220 107.376 C 239.009 107.569,238.441 108.092,237.958 108.539 C 237.475 108.986,236.986 109.351,236.872 109.351 C 236.758 109.351,236.402 109.585,236.081 109.871 C 235.714 110.199,234.925 110.567,233.946 110.866 C 233.092 111.127,232.252 111.417,232.078 111.512 C 231.905 111.606,231.563 111.633,231.318 111.572 C 231.044 111.503,230.872 111.536,230.872 111.658 C 230.872 111.920,227.360 111.932,227.199 111.671 C 227.136 111.568,226.926 111.535,226.733 111.596 C 226.539 111.657,226.284 111.631,226.166 111.537 C 225.942 111.359,224.683 111.055,224.295 111.084 C 224.172 111.094,224.072 111.030,224.072 110.942 C 224.072 110.855,223.968 110.783,223.841 110.783 C 223.714 110.783,223.300 110.625,222.920 110.431 C 222.540 110.237,222.148 110.129,222.049 110.190 C 221.950 110.251,221.919 110.220,221.980 110.121 C 222.041 110.022,221.712 109.670,221.247 109.339 C 219.636 108.192,217.629 105.682,217.629 104.815 C 217.629 104.682,217.468 104.388,217.271 104.161 C 217.074 103.934,216.907 103.700,216.899 103.642 C 216.892 103.583,216.858 103.414,216.825 103.266 C 216.792 103.119,216.708 102.655,216.637 102.237 L 216.509 101.477 231.904 101.477 C 245.778 101.477,247.310 101.449,247.408 101.193 C 247.732 100.349,247.373 92.620,246.997 92.349 C 246.929 92.300,246.766 91.696,246.634 91.007 C 246.362 89.582,245.427 86.593,245.210 86.449 C 245.073 86.359,244.594 85.561,244.561 85.369 C 244.480 84.888,244.233 84.492,244.076 84.589 C 243.959 84.661,243.934 84.625,244.012 84.499 C 244.136 84.298,243.036 82.579,242.222 81.699 C 242.017 81.477,241.544 80.923,241.171 80.469 C 240.799 80.014,240.398 79.642,240.280 79.642 C 240.163 79.642,239.841 79.406,239.564 79.117 C 239.025 78.554,237.122 77.315,236.796 77.315 C 236.688 77.315,236.600 77.242,236.600 77.152 C 236.600 76.971,234.179 76.006,233.199 75.797 C 232.855 75.724,232.492 75.611,232.394 75.547 C 232.295 75.483,232.054 75.435,231.857 75.440 C 231.660 75.445,231.444 75.369,231.376 75.272 C 231.249 75.089,225.289 74.959,223.984 75.111 M320.671 75.108 C 320.302 75.153,320.000 75.254,320.000 75.333 C 320.000 75.412,319.819 75.463,319.597 75.446 C 319.376 75.429,319.114 75.469,319.016 75.534 C 318.917 75.600,318.454 75.746,317.986 75.861 C 316.842 76.140,315.219 76.755,314.944 77.015 C 314.821 77.131,314.438 77.366,314.094 77.538 C 312.947 78.110,312.377 78.482,311.756 79.064 C 311.418 79.381,311.078 79.641,311.000 79.641 C 310.805 79.642,309.326 81.175,308.582 82.148 C 308.243 82.591,307.904 82.993,307.829 83.043 C 307.698 83.129,307.357 83.692,306.645 85.003 C 306.460 85.343,306.220 85.719,306.112 85.839 C 306.004 85.958,305.655 86.808,305.337 87.726 C 305.019 88.645,304.653 89.643,304.523 89.945 C 303.540 92.234,303.239 100.845,304.025 104.161 C 304.574 106.473,305.765 109.709,306.067 109.709 C 306.151 109.709,306.201 109.770,306.178 109.843 C 306.117 110.045,306.977 111.499,307.158 111.499 C 307.244 111.499,307.266 111.576,307.208 111.671 C 307.149 111.766,307.265 112.008,307.466 112.208 C 307.666 112.409,307.772 112.573,307.701 112.573 C 307.630 112.573,307.750 112.698,307.969 112.851 C 308.188 113.005,308.366 113.226,308.365 113.343 C 308.361 113.715,311.948 117.014,312.997 117.603 C 313.551 117.915,314.045 118.222,314.094 118.286 C 314.204 118.431,316.077 119.249,317.047 119.577 C 317.441 119.710,317.803 119.872,317.852 119.936 C 318.823 121.202,331.435 121.189,332.963 119.921 C 333.090 119.816,333.628 119.578,334.158 119.394 C 335.558 118.906,336.109 118.626,336.003 118.455 C 335.952 118.372,336.035 118.352,336.188 118.410 C 336.340 118.469,336.465 118.441,336.465 118.347 C 336.465 118.254,336.822 117.994,337.258 117.770 C 338.349 117.209,341.022 114.645,340.841 114.333 C 340.765 114.201,340.769 114.154,340.850 114.227 C 341.577 114.885,341.613 113.263,340.887 112.537 C 340.563 112.212,340.150 111.705,339.970 111.409 C 339.789 111.114,339.489 110.711,339.303 110.515 C 339.117 110.318,338.434 109.452,337.786 108.591 C 337.138 107.729,336.513 107.025,336.398 107.025 C 336.077 107.025,334.890 108.063,334.767 108.451 C 334.707 108.641,334.505 108.844,334.319 108.903 C 334.134 108.962,333.455 109.364,332.811 109.796 C 332.167 110.227,331.160 110.723,330.574 110.897 C 329.988 111.071,329.540 111.263,329.577 111.324 C 329.615 111.384,329.408 111.399,329.118 111.357 C 328.780 111.307,328.591 111.358,328.591 111.498 C 328.591 111.644,328.436 111.678,328.126 111.600 C 327.865 111.535,327.554 111.573,327.416 111.687 C 327.078 111.968,324.145 111.924,323.793 111.633 C 323.575 111.454,323.506 111.454,323.446 111.634 C 323.386 111.811,323.268 111.805,322.893 111.607 C 322.631 111.469,322.054 111.264,321.611 111.152 C 320.674 110.916,319.113 110.250,318.797 109.951 C 318.676 109.837,318.274 109.561,317.902 109.337 C 317.016 108.804,315.380 107.094,315.089 106.397 C 314.963 106.094,314.743 105.729,314.602 105.586 C 314.191 105.170,313.199 102.383,313.199 101.647 C 313.199 101.540,319.008 101.477,328.680 101.477 L 344.161 101.477 344.161 97.987 C 344.161 95.779,344.095 94.497,343.982 94.497 C 343.884 94.497,343.803 94.230,343.803 93.903 C 343.803 93.253,343.494 91.344,343.319 90.917 C 343.259 90.770,343.223 90.585,343.241 90.506 C 343.302 90.226,342.484 87.783,342.251 87.550 C 342.120 87.419,342.013 87.208,342.013 87.081 C 342.013 86.662,340.932 84.458,340.775 84.555 C 340.689 84.608,340.567 84.440,340.502 84.182 C 340.140 82.737,335.323 77.763,334.287 77.763 C 334.156 77.763,333.951 77.682,333.832 77.584 C 333.712 77.485,333.499 77.309,333.358 77.191 C 332.946 76.848,331.094 76.119,329.978 75.861 C 329.412 75.730,328.949 75.556,328.949 75.474 C 328.949 75.393,328.864 75.378,328.762 75.441 C 328.659 75.505,328.452 75.455,328.302 75.330 C 328.026 75.101,322.143 74.929,320.671 75.108 M228.188 83.776 C 228.188 83.899,228.484 83.950,228.976 83.911 C 229.410 83.876,229.727 83.908,229.682 83.982 C 229.636 84.056,229.755 84.116,229.945 84.116 C 230.490 84.116,232.506 84.927,232.917 85.311 C 233.121 85.501,233.570 85.831,233.915 86.042 C 234.722 86.538,235.937 87.965,236.449 89.018 C 236.669 89.472,236.911 89.843,236.985 89.843 C 237.150 89.843,237.941 92.319,238.116 93.378 L 238.242 94.139 227.305 94.139 L 216.369 94.139 216.481 93.647 C 216.847 92.031,217.141 90.996,217.257 90.918 C 217.330 90.868,217.654 90.249,217.978 89.541 C 218.301 88.834,218.755 88.077,218.987 87.860 C 219.218 87.643,219.357 87.383,219.296 87.284 C 219.234 87.184,219.273 87.158,219.382 87.226 C 219.490 87.293,219.662 87.193,219.763 87.005 C 220.042 86.482,223.535 84.061,223.535 84.390 C 223.535 84.418,223.957 84.329,224.474 84.192 C 224.991 84.054,225.635 83.941,225.906 83.939 C 226.177 83.938,226.398 83.857,226.398 83.758 C 226.398 83.660,226.801 83.579,227.293 83.579 C 227.825 83.579,228.188 83.659,228.188 83.776 M324.832 83.758 C 324.832 83.857,325.082 83.937,325.388 83.937 C 326.468 83.937,329.664 84.980,329.665 85.333 C 329.665 85.402,330.028 85.688,330.471 85.968 C 330.915 86.248,331.532 86.832,331.844 87.266 C 332.155 87.699,332.473 88.054,332.551 88.054 C 332.719 88.054,333.960 90.526,333.960 90.862 C 333.960 90.991,334.030 91.096,334.117 91.096 C 334.285 91.096,334.855 93.163,334.855 93.773 C 334.855 94.137,334.814 94.139,324.003 94.139 L 313.150 94.139 313.256 93.371 C 313.388 92.403,314.264 89.664,314.441 89.664 C 314.514 89.664,314.784 89.282,315.042 88.814 C 315.588 87.821,316.782 86.494,317.673 85.889 C 318.018 85.655,318.437 85.347,318.604 85.205 C 319.084 84.798,321.031 84.124,322.089 84.000 C 322.619 83.938,323.095 83.818,323.148 83.733 C 323.281 83.517,324.832 83.540,324.832 83.758 M278.781 84.385 C 280.282 84.717,281.879 85.227,281.879 85.374 C 281.879 85.435,282.221 85.656,282.640 85.866 C 283.577 86.337,285.093 87.765,285.737 88.785 C 286.001 89.204,286.355 89.694,286.522 89.874 C 286.690 90.054,287.054 90.906,287.330 91.767 C 287.607 92.629,287.963 93.696,288.121 94.139 C 288.474 95.125,288.547 101.073,288.211 101.494 C 288.101 101.632,287.908 102.188,287.781 102.729 C 287.462 104.099,286.598 106.168,286.269 106.352 C 286.119 106.436,285.996 106.591,285.996 106.695 C 285.996 107.675,282.656 110.372,280.685 110.983 C 280.013 111.192,279.315 111.438,279.135 111.531 C 278.954 111.624,278.579 111.650,278.302 111.589 C 278.017 111.526,277.746 111.561,277.680 111.667 C 277.531 111.908,276.331 111.917,276.331 111.678 C 276.331 111.579,276.170 111.499,275.973 111.499 C 275.776 111.499,275.615 111.584,275.615 111.688 C 275.615 111.803,275.423 111.775,275.123 111.616 C 274.852 111.473,274.148 111.219,273.557 111.053 C 272.966 110.887,272.193 110.577,271.837 110.364 C 270.916 109.813,269.172 108.470,269.172 108.311 C 269.172 108.238,268.904 107.898,268.575 107.556 C 268.247 107.215,267.706 106.371,267.373 105.682 C 267.040 104.993,266.710 104.388,266.640 104.337 C 266.506 104.240,265.784 101.593,265.669 100.780 C 265.279 98.027,266.011 91.633,266.716 91.633 C 266.810 91.633,266.843 91.464,266.789 91.257 C 266.735 91.051,266.739 90.930,266.798 90.989 C 266.856 91.047,267.113 90.686,267.367 90.186 C 267.907 89.125,269.706 86.817,270.000 86.807 C 270.111 86.804,270.307 86.674,270.436 86.519 C 270.564 86.365,270.992 86.073,271.386 85.872 C 271.780 85.671,272.204 85.405,272.328 85.281 C 272.452 85.158,273.061 84.928,273.682 84.772 C 276.665 84.022,277.014 83.995,278.781 84.385 M189.306 114.394 C 189.279 117.576,189.257 115.025,189.257 108.725 C 189.257 102.425,189.279 99.822,189.306 102.940 C 189.334 106.058,189.334 111.213,189.306 114.394 " stroke="none" fill="#041c44" fill-rule="evenodd"></path><path id="path4" d="" stroke="none" fill="#bc8490" fill-rule="evenodd"></path></g></svg>
